<?xml version="1.0" encoding="iso-8859-1"?>
<!-- Generator: Adobe Illustrator 18.0.0, SVG Export Plug-In . SVG Version: 6.00 Build 0)  -->
<!DOCTYPE svg PUBLIC "-//W3C//DTD SVG 1.1//EN" "http://www.w3.org/Graphics/SVG/1.1/DTD/svg11.dtd">
<svg version="1.1" id="Capa_1" xmlns="http://www.w3.org/2000/svg" xmlns:xlink="http://www.w3.org/1999/xlink" x="0px" y="0px"
	 viewBox="0 0 297 297" style="enable-background:new 0 0 297 297;" xml:space="preserve">
<path d="M279.15,9.311c-3.488-4.463-9.932-5.255-14.398-1.768l-34.934,27.294C209.61,13.402,180.976,0,149.268,0
	C88.199,0,38.515,49.703,38.515,110.797c0,21.348,5.485,42.575,13.938,62.615l-32.836,25.654c-4.46,3.486-5.252,9.932-1.768,14.395
	c1.744,2.23,4.227,3.543,6.833,3.866c2.607,0.318,5.334-0.358,7.567-2.099l29.226-22.835
	c29.722,56.368,78.088,99.468,81.016,102.048c1.937,1.705,4.357,2.559,6.777,2.559c2.421,0,4.842-0.853,6.778-2.559
	c4.245-3.739,103.976-92.618,103.976-183.645c0-22.013-6.451-42.546-17.561-59.808l34.921-27.284
	C281.844,20.221,282.635,13.773,279.15,9.311z M59.026,110.797c0-49.784,40.482-90.287,90.242-90.287
	c25.152,0,47.93,10.353,64.311,27.017l-30.915,24.154c-8.979-7.779-20.646-12.497-33.395-12.497
	c-28.272,0-51.275,23.153-51.275,51.613c0,8.211,1.924,15.975,5.327,22.873l-34.033,26.589
	C62.982,144.102,59.026,127.369,59.026,110.797z M180.034,110.797c0,17.151-13.802,31.104-30.766,31.104
	c-6.168,0-11.914-1.852-16.734-5.025l45.926-35.882C179.474,104.078,180.034,107.372,180.034,110.797z M118.504,110.797
	c0-17.15,13.802-31.104,30.765-31.104c6.162,0,11.902,1.848,16.72,5.015l-45.916,35.873
	C119.06,117.503,118.504,114.215,118.504,110.797z M239.512,110.797c0,68.862-68.194,140.525-90.244,161.892
	c-14.599-14.148-49.424-50.349-71.294-93.186l37.886-29.6c8.982,7.785,20.654,12.508,33.408,12.508
	c28.273,0,51.275-23.153,51.275-51.614c0-8.217-1.927-15.986-5.335-22.889l31.01-24.229
	C234.646,77.404,239.512,93.542,239.512,110.797z"/>
<g>
</g>
<g>
</g>
<g>
</g>
<g>
</g>
<g>
</g>
<g>
</g>
<g>
</g>
<g>
</g>
<g>
</g>
<g>
</g>
<g>
</g>
<g>
</g>
<g>
</g>
<g>
</g>
<g>
</g>
</svg>
